<svg height="496pt" viewBox="0 0 496 496" width="496pt" xmlns="http://www.w3.org/2000/svg"><path d="m496 390.617188v-69.234376c0-1.566406-.191406-3.144531-.574219-4.664062l-15.089843-60.375c-.664063-2.625-1.839844-5.03125-3.480469-7.136719l-49.703125-63.902343c-5.417969-6.953126-14.535156-10.160157-23.023438-8.847657-34.863281-48.65625-91.839844-80.457031-156.128906-80.457031-64.28125 0-121.238281 31.785156-156.105469 80.433594-8.488281-1.304688-17.621093 1.917968-23.046875 8.871094l-49.6875 63.886718c-1.65625 2.121094-2.832031 4.519532-3.496094 7.167969l-15.089843 60.359375c-.382813 1.519531-.574219 3.097656-.574219 4.664062v69.234376c0 1.566406.191406 3.144531.574219 4.664062l13.179687 52.71875h-13.753906v48h128v-48h-16v-24.550781c35.921875 36.101562 84.535156 56.550781 136 56.550781 51.519531 0 100.078125-20.414062 136-56.527344v24.527344h-16v48h128v-48h-13.753906l13.179687-52.71875c.382813-1.519531.574219-3.097656.574219-4.664062zm-248-278.617188c97.046875 0 176 78.953125 176 176 0 17.96875-2.703125 35.488281-7.953125 52.320312l-12.460937-41.542968c-1.960938-6.546875-6.265626-11.777344-11.800782-15.058594-2.289062-77.40625-65.824218-139.71875-143.785156-139.71875s-141.496094 62.3125-143.785156 139.71875c-5.535156 3.28125-9.839844 8.511719-11.800782 15.058594l-12.460937 41.542968c-5.25-16.839843-7.953125-34.34375-7.953125-52.320312 0-97.046875 78.953125-176 176-176zm191.351562 214.40625c.167969.671875.121094 1.371094-.136718 2.007812l-11.816406 29.53125c-.207032.519532-.613282.847657-1.03125 1.152344 5.183593-12.96875 8.921874-26.355468 11.136718-40.066406zm-86-9.046875 9.207032 27.632813c-16.679688 33.449218-47.160156 57.609374-82.558594 66.824218v-59.816406c0-30.871094 25.121094-56 56-56h18.128906c-1.359375 3.183594-2.128906 6.679688-2.128906 10.351562v2.671876c0 2.832031.457031 5.640624 1.351562 8.335937zm-211.480468-21.359375h18.128906c30.878906 0 56 25.128906 56 56v59.921875c-35.238281-9.019531-65.328125-32.683594-82.304688-66.257813l-.582031.296876 9.535157-28.601563c.894531-2.695313 1.351562-5.503906 1.351562-8.335937v-2.671876c0-3.671874-.769531-7.167968-2.128906-10.351562zm169.273437-11.488281c-1.769531-13.160157-6.496093-25.609375-13.960937-36.511719h72.328125c3.351562 10.167969 5.390625 20.894531 6.089843 32h-39.601562c-8.742188 0-17.097656 1.648438-24.855469 4.511719zm-178.066406-52.511719c20.824219-42.550781 64.441406-72 114.921875-72s94.097656 29.449219 114.921875 72zm-6.589844 16h72.328125c-7.464844 10.902344-12.191406 23.351562-13.960937 36.511719-7.757813-2.863281-16.113281-4.511719-24.855469-4.511719h-39.59375c.691406-11.105469 2.730469-21.832031 6.082031-32zm73.695313 44.289062c.878906-16.65625 7.59375-32.210937 19.222656-44.289062h57.1875c11.628906 12.070312 18.34375 27.625 19.222656 44.289062-19.175781 12.941407-31.816406 34.878907-31.816406 59.710938v62.921875c-5.273438.671875-10.609375 1.078125-16 1.078125-5.40625 0-10.734375-.382812-16-1.039062v-62.960938c0-24.832031-12.640625-46.769531-31.816406-59.710938zm-141.695313 26.734376c2.222657 13.71875 5.960938 27.105468 11.144531 40.074218-.417968-.296875-.832031-.625-1.039062-1.144531l-11.816406-29.527344c-.257813-.648437-.304688-1.347656-.136719-2.019531zm53.511719 160.976562h-96v-16h96zm-81.742188-32-14.257812-57.382812.097656-70.023438 15.078125-60.328125c.113281-.457031.3125-.867187.601563-1.226563l45.191406-58.109374c-9.074219 17.742187-15.496094 37.046874-18.671875 57.429687-1.152344 1.777344-2.058594 3.695313-2.578125 5.777344l-14.597656 58.398437c-.984375 3.945313-.714844 8.03125.808594 11.824219l11.8125 29.542969c2.9375 7.34375 9.960937 12.097656 17.882812 12.097656 8.566406 0 15.984375-5.511719 18.445312-13.726562l17.671876-58.898438c1.320312-4.414062 5.304687-7.375 9.914062-7.375 5.703125 0 10.34375 4.640625 10.34375 10.351562v2.671876c0 1.121093-.175781 2.214843-.527344 3.273437l-31.472656 94.40625v41.296875zm217.742188 16c-51.640625 0-100.160156-22.449219-133.695312-61.625l12.328124-36.976562c26.328126 41.386718 71.582032 66.601562 121.367188 66.601562 49.335938 0 95.144531-25.640625 121.367188-66.59375l12.320312 36.960938c-33.542969 39.191406-81.992188 61.632812-133.6875 61.632812zm232 16h-96v-16h96zm-80-32v-41.296875l-31.472656-94.40625c-.351563-1.058594-.527344-2.152344-.527344-3.273437v-2.671876c0-5.710937 4.640625-10.351562 10.34375-10.351562 4.609375 0 8.59375 2.960938 9.914062 7.375l17.671876 58.898438c2.460937 8.214843 9.878906 13.726562 18.445312 13.726562 7.921875 0 14.9375-4.753906 17.882812-12.113281l11.820313-29.542969c1.515625-3.785156 1.785156-7.863281.800781-11.816406l-14.597656-58.414063c-.519531-2.074219-1.425781-3.984375-2.578125-5.761719-3.167969-20.375-9.597656-39.679687-18.664063-57.414062l45.191407 58.109375c.273437.34375.472656.761719.585937 1.183594l15.183594 61.152343-.097656 70.023438-14.148438 56.59375zm0 0"/><path d="m272 288c0-13.230469-10.769531-24-24-24s-24 10.769531-24 24 10.769531 24 24 24 24-10.769531 24-24zm-32 0c0-4.414062 3.59375-8 8-8s8 3.585938 8 8-3.59375 8-8 8-8-3.585938-8-8zm0 0"/><path d="m248 16c19 0 36.871094 7.480469 50.320312 21.054688l11.367188-11.246094c-16.472656-16.640625-38.382812-25.808594-61.6875-25.808594s-45.214844 9.167969-61.679688 25.808594l11.367188 11.246094c13.441406-13.574219 31.3125-21.054688 50.3125-21.054688zm0 0"/><path d="m287.289062 48.441406c-10.496093-10.609375-24.449218-16.441406-39.289062-16.441406s-28.792969 5.832031-39.289062 16.441406l11.367187 11.246094c7.464844-7.535156 17.386719-11.6875 27.921875-11.6875s20.457031 4.152344 27.921875 11.6875zm0 0"/><path d="m231.113281 71.0625 11.375 11.25c2.953125-2.984375 8.070313-2.984375 11.023438 0l11.375-11.25c-9.007813-9.109375-24.765625-9.109375-33.773438 0zm0 0"/></svg>